<?xml version="1.0" encoding="UTF-8"?>
<svg id="Capa_1" xmlns="http://www.w3.org/2000/svg" version="1.1" viewBox="0 0 1025.13 981.24">
  <!-- Generator: Adobe Illustrator 29.1.0, SVG Export Plug-In . SVG Version: 2.1.0 Build 142)  -->
  <defs>
    <style>
      .st0 {
        fill: #b0b0b0;
      }

      .st0, .st1 {
        fill-rule: evenodd;
      }

      .st2, .st1 {
        fill: #bb1717;
      }

      .st3 {
        fill: #666;
      }
    </style>
  </defs>
  <g>
    <path class="st2" d="M345.4,650.49v157.94c0,26.6-8.13,48.15-24.39,64.64-16.26,16.48-37.36,24.73-63.29,24.73-8.72,0-17.07-1.09-25.07-3.27-7.99-2.18-14.61-4.75-19.87-7.71-5.25-2.96-9.89-5.92-13.92-8.88-4.02-2.96-6.93-5.5-8.72-7.63l-2.68-3.35,39.4-39.57c5.7,8.05,14.31,12.07,25.82,12.07,7.82,0,14.34-2.88,19.53-8.64,5.2-5.75,7.8-13.21,7.8-22.38v-157.94h65.39Z"/>
    <path class="st2" d="M609.68,650.49v240.43h-56.34l-103.28-133.97v133.97h-65.22v-240.43h56.67l102.95,133.97v-133.97h65.22Z"/>
    <path class="st2" d="M839.77,835.93v54.99h-188.79v-240.43h185.44v55h-120.22v37.72h92.72v51.64h-92.72v41.08h123.57Z"/>
  </g>
  <path class="st0" d="M519.83,20.5c82.95,0,150.62,67.66,150.62,150.62s-67.66,150.64-150.62,150.64-150.64-67.66-150.64-150.64S436.88,20.5,519.83,20.5"/>
  <path class="st0" d="M890.55,415.45l68.22,130.97c15.41,29.59-6.06,64.98-39.42,64.98h-269.74c-1.39,0-2.31-1.46-1.7-2.71h0c.16-.34.43-.62.75-.81l21.57-12.52c2.54-1.47,4.36-3.93,5.03-6.79l2.52-10.76c.57-2.43,2.05-4.56,4.13-5.95l10.91-7.27c2.2-1.47,3.75-3.72,4.33-6.3l3.56-15.78c.65-2.89,2.25-5.48,4.54-7.35l153.96-126.13c10.12-8.29,25.3-5.18,31.34,6.42ZM410.38,611.4H123.09c-31.87,0-52.37-33.8-37.65-62.06l68.68-131.82c6.5-12.48,22.95-15.61,33.58-6.4l154.73,134.1v.04l.23,2.8.29,2.74.37,2.67.45,2.67.53,2.63.58,2.57.66,2.53.74,2.53.8,2.49.88,2.47.99,2.47,1.5,3.38c.03.06.06.12.09.18l2.53,4.38c.05.08.1.16.16.23l3.17,3.97s.08.09.12.14l3.03,3.13s.07.07.1.1l3.03,2.69s.07.06.1.08l3.07,2.38s.06.04.09.06l3.17,2.17,3.29,2.03s.06.04.09.05l3.43,1.86s.06.03.1.05l3.61,1.7s.06.03.09.04l3.82,1.56s.08.03.12.05l4.13,1.36s.09.03.14.04l4.53,1.11c.06.01.12.03.18.04l5.14.73c.08.01.15.02.23.02l5.93.12c.1,0,.2,0,.3-.02l7.09-1.01.47-.17.45,2.93c.18,1.14-.71,2.17-1.87,2.17Z"/>
  <g>
    <path class="st3" d="M35.5,926.65v25.29c0,3.79-1.17,6.87-3.5,9.24-2.34,2.37-5.4,3.55-9.2,3.55-1.84,0-3.56-.38-5.16-1.14-1.6-.76-2.73-1.52-3.39-2.26l-1.04-1.12,4.66-4.81c.1.14.27.34.49.58.23.25.73.57,1.51.96.78.39,1.58.58,2.4.58,1.69,0,3.02-.5,3.99-1.48.97-.99,1.45-2.36,1.45-4.1v-25.29h7.79Z"/>
    <path class="st3" d="M66.77,955c1.57-1.68,2.35-3.77,2.35-6.26v-22.09h7.77v22.09c0,4.54-1.5,8.34-4.51,11.4-3,3.06-6.77,4.59-11.3,4.59s-8.3-1.53-11.3-4.59c-3-3.06-4.5-6.86-4.5-11.4v-22.09h7.77v22.09c0,2.48.79,4.56,2.37,6.25,1.58,1.69,3.47,2.54,5.68,2.54s4.1-.84,5.67-2.52Z"/>
    <path class="st3" d="M86.94,926.65h16.07c3.59,0,6.57,1.18,8.92,3.55,2.35,2.37,3.53,5.26,3.53,8.69,0,1.49-.23,2.89-.68,4.19-.46,1.3-.99,2.34-1.61,3.14-.62.79-1.24,1.48-1.88,2.05-.64.57-1.19.96-1.64,1.17l-.66.36,7.77,14.11h-8.3l-6.98-13.04h-6.73v13.04h-7.79v-37.27ZM106.29,935.28c-.94-.96-2.11-1.43-3.53-1.43h-8.02v9.85h8.02c1.42,0,2.59-.46,3.53-1.39s1.4-2.06,1.4-3.42c0-1.45-.47-2.66-1.4-3.61Z"/>
    <path class="st3" d="M131.99,955.13l-3.11,8.78h-8.3l14.27-37.27h8.27l14.27,37.27h-8.3l-3.11-8.78h-13.99ZM139,935.98l-4.43,12.24h8.83l-4.4-12.24Z"/>
    <path class="st3" d="M177.04,926.65c5.28,0,9.71,1.8,13.29,5.4,3.58,3.61,5.37,8.02,5.37,13.23s-1.79,9.62-5.37,13.23c-3.58,3.6-8.01,5.4-13.29,5.4h-13.49v-37.27h13.49ZM171.35,933.85v22.9h5.69c3,0,5.57-1.11,7.69-3.33,2.13-2.22,3.19-4.92,3.19-8.12s-1.04-5.91-3.11-8.12-4.66-3.33-7.77-3.33h-5.69Z"/>
    <path class="st3" d="M207.55,931.56c3.8-3.79,8.47-5.69,13.99-5.69s10.19,1.89,13.99,5.69c3.8,3.8,5.71,8.37,5.71,13.73s-1.9,9.93-5.71,13.73c-3.8,3.8-8.47,5.71-13.99,5.71s-10.19-1.9-13.99-5.71c-3.8-3.8-5.71-8.38-5.71-13.73s1.9-9.93,5.71-13.73ZM213.28,953.99c2.26,2.36,5.01,3.54,8.26,3.54s6-1.18,8.26-3.54c2.26-2.36,3.39-5.26,3.39-8.69s-1.13-6.34-3.39-8.71c-2.26-2.36-5.01-3.54-8.26-3.54s-6,1.18-8.26,3.54c-2.26,2.37-3.39,5.27-3.39,8.71s1.13,6.33,3.39,8.69Z"/>
    <path class="st3" d="M293.48,926.65v37.27h-6.73l-17.87-23.67v23.67h-7.79v-37.27h6.76l17.87,23.7v-23.7h7.77Z"/>
    <path class="st3" d="M311.04,955.13l-3.11,8.78h-8.3l14.27-37.27h8.28l14.27,37.27h-8.3l-3.11-8.78h-13.99ZM318.05,935.98l-4.43,12.24h8.83l-4.4-12.24Z"/>
    <path class="st3" d="M363.61,926.63c1.72.51,3.13,1.13,4.24,1.86,1.11.73,2.08,1.45,2.94,2.18.85.73,1.46,1.34,1.83,1.85l.58.78-4.94,5.07c-.1-.14-.24-.33-.42-.58-.18-.25-.57-.68-1.19-1.29-.62-.6-1.29-1.14-2.01-1.6-.72-.46-1.68-.88-2.86-1.27-1.18-.39-2.39-.58-3.62-.58-3.39,0-6.23,1.17-8.5,3.51-2.28,2.34-3.42,5.25-3.42,8.74s1.14,6.39,3.42,8.73c2.28,2.34,5.11,3.51,8.5,3.51,1.32,0,2.58-.19,3.78-.56,1.21-.38,2.21-.82,3-1.33.79-.51,1.49-1.03,2.1-1.55.61-.52,1.05-.97,1.32-1.35l.4-.55,4.68,5.07c-.13.21-.34.48-.62.82-.28.34-.89.93-1.85,1.79-.95.86-1.97,1.61-3.06,2.26-1.09.65-2.51,1.24-4.28,1.78-1.76.54-3.59.81-5.48.81-5.53,0-10.2-1.9-14.01-5.71-3.8-3.8-5.71-8.38-5.71-13.73s1.9-9.93,5.71-13.73c3.8-3.79,8.47-5.69,14.01-5.69,1.91,0,3.72.25,5.44.76Z"/>
    <path class="st3" d="M380.64,926.65h7.79v37.27h-7.79v-37.27Z"/>
    <path class="st3" d="M402.37,931.56c3.8-3.79,8.47-5.69,13.99-5.69s10.19,1.89,13.99,5.69c3.8,3.8,5.71,8.37,5.71,13.73s-1.9,9.93-5.71,13.73c-3.8,3.8-8.47,5.71-13.99,5.71s-10.19-1.9-13.99-5.71c-3.8-3.8-5.71-8.38-5.71-13.73s1.9-9.93,5.71-13.73ZM408.11,953.99c2.26,2.36,5.01,3.54,8.26,3.54s6-1.18,8.26-3.54c2.26-2.36,3.39-5.26,3.39-8.69s-1.13-6.34-3.39-8.71c-2.26-2.36-5.01-3.54-8.26-3.54s-6,1.18-8.26,3.54c-2.26,2.37-3.39,5.27-3.39,8.71s1.13,6.33,3.39,8.69Z"/>
    <path class="st3" d="M476.68,926.65v37.27h-6.73l-17.87-23.67v23.67h-7.79v-37.27h6.76l17.87,23.7v-23.7h7.77Z"/>
    <path class="st3" d="M494.24,955.13l-3.11,8.78h-8.3l14.27-37.27h8.28l14.27,37.27h-8.3l-3.11-8.78h-13.99ZM501.25,935.98l-4.43,12.24h8.83l-4.4-12.24Z"/>
    <path class="st3" d="M525.8,963.92v-37.27h7.79v30.1h16.83v7.17h-24.62Z"/>
    <path class="st3" d="M582.48,926.65c5.28,0,9.71,1.8,13.29,5.4,3.58,3.61,5.37,8.02,5.37,13.23s-1.79,9.62-5.37,13.23c-3.58,3.6-8.01,5.4-13.29,5.4h-13.49v-37.27h13.49ZM576.79,933.85v22.9h5.69c3,0,5.57-1.11,7.69-3.33,2.13-2.22,3.19-4.92,3.19-8.12s-1.04-5.91-3.11-8.12c-2.07-2.22-4.66-3.33-7.77-3.33h-5.69Z"/>
    <path class="st3" d="M636.59,956.74v7.17h-27.23v-37.27h26.7v7.2h-18.9v7.46h14.75v7.17h-14.75v8.26h19.44Z"/>
    <path class="st3" d="M683.65,956.74v7.17h-27.23v-37.27h26.7v7.2h-18.9v7.46h14.75v7.17h-14.75v8.26h19.44Z"/>
    <path class="st3" d="M691.86,963.92v-37.27h7.79v30.1h16.83v7.17h-24.62Z"/>
    <path class="st3" d="M750.66,956.74v7.17h-27.23v-37.27h26.7v7.2h-18.9v7.46h14.75v7.17h-14.75v8.26h19.44Z"/>
    <path class="st3" d="M781.95,926.63c1.72.51,3.13,1.13,4.24,1.86,1.11.73,2.08,1.45,2.94,2.18.85.73,1.46,1.34,1.83,1.85l.58.78-4.94,5.07c-.1-.14-.24-.33-.42-.58-.18-.25-.57-.68-1.19-1.29-.62-.6-1.29-1.14-2.01-1.6-.72-.46-1.68-.88-2.86-1.27-1.18-.39-2.39-.58-3.62-.58-3.39,0-6.23,1.17-8.5,3.51-2.28,2.34-3.42,5.25-3.42,8.74s1.14,6.39,3.42,8.73c2.28,2.34,5.11,3.51,8.5,3.51,1.32,0,2.58-.19,3.78-.56,1.21-.38,2.21-.82,3-1.33.79-.51,1.49-1.03,2.1-1.55.61-.52,1.05-.97,1.32-1.35l.4-.55,4.68,5.07c-.13.21-.34.48-.62.82-.28.34-.89.93-1.85,1.79-.95.86-1.97,1.61-3.06,2.26-1.09.65-2.51,1.24-4.28,1.78-1.76.54-3.59.81-5.48.81-5.53,0-10.2-1.9-14.01-5.71-3.8-3.8-5.71-8.38-5.71-13.73s1.9-9.93,5.71-13.73c3.8-3.79,8.47-5.69,14.01-5.69,1.91,0,3.72.25,5.44.76Z"/>
    <path class="st3" d="M821.02,926.63c1.72.51,3.13,1.13,4.24,1.86,1.11.73,2.08,1.45,2.94,2.18.85.73,1.46,1.34,1.83,1.85l.58.78-4.94,5.07c-.1-.14-.24-.33-.42-.58-.18-.25-.57-.68-1.19-1.29-.62-.6-1.29-1.14-2.01-1.6-.72-.46-1.68-.88-2.86-1.27-1.18-.39-2.39-.58-3.62-.58-3.39,0-6.23,1.17-8.5,3.51-2.28,2.34-3.42,5.25-3.42,8.74s1.14,6.39,3.42,8.73c2.28,2.34,5.11,3.51,8.5,3.51,1.32,0,2.58-.19,3.78-.56,1.21-.38,2.21-.82,3-1.33.79-.51,1.49-1.03,2.1-1.55.61-.52,1.05-.97,1.32-1.35l.4-.55,4.68,5.07c-.13.21-.34.48-.62.82-.28.34-.89.93-1.85,1.79-.95.86-1.97,1.61-3.06,2.26-1.09.65-2.51,1.24-4.28,1.78-1.76.54-3.59.81-5.48.81-5.53,0-10.2-1.9-14.01-5.71-3.8-3.8-5.71-8.38-5.71-13.73s1.9-9.93,5.71-13.73c3.8-3.79,8.47-5.69,14.01-5.69,1.91,0,3.72.25,5.44.76Z"/>
    <path class="st3" d="M838.05,926.65h7.79v37.27h-7.79v-37.27Z"/>
    <path class="st3" d="M859.78,931.56c3.8-3.79,8.47-5.69,13.99-5.69s10.19,1.89,13.99,5.69c3.8,3.8,5.71,8.37,5.71,13.73s-1.9,9.93-5.71,13.73c-3.8,3.8-8.47,5.71-13.99,5.71s-10.19-1.9-13.99-5.71c-3.8-3.8-5.71-8.38-5.71-13.73s1.9-9.93,5.71-13.73ZM865.52,953.99c2.26,2.36,5.01,3.54,8.26,3.54s6-1.18,8.26-3.54c2.26-2.36,3.39-5.26,3.39-8.69s-1.13-6.34-3.39-8.71c-2.26-2.36-5.01-3.54-8.26-3.54s-6,1.18-8.26,3.54c-2.26,2.37-3.39,5.27-3.39,8.71s1.13,6.33,3.39,8.69Z"/>
    <path class="st3" d="M934.09,926.65v37.27h-6.73l-17.87-23.67v23.67h-7.79v-37.27h6.76l17.87,23.7v-23.7h7.77Z"/>
    <path class="st3" d="M971.62,956.74v7.17h-27.23v-37.27h26.7v7.2h-18.9v7.46h14.75v7.17h-14.75v8.26h19.44Z"/>
    <path class="st3" d="M993.81,949.99c-1.22-.76-2.72-1.4-4.48-1.91-1.76-.52-3.52-1.11-5.26-1.81-1.75-.69-3.23-1.84-4.47-3.43-1.23-1.59-1.85-3.61-1.85-6.06,0-3.02,1.18-5.59,3.53-7.72,2.35-2.13,5.41-3.2,9.17-3.2,1.49,0,2.92.17,4.3.53,1.38.35,2.52.77,3.4,1.24.89.48,1.66.96,2.33,1.46.67.49,1.14.92,1.43,1.28l.46.52-4.66,5.06c-.2-.24-.48-.54-.85-.89-.36-.35-1.13-.83-2.29-1.41-1.16-.59-2.36-.89-3.59-.89-1.48,0-2.68.39-3.58,1.17-.9.78-1.35,1.72-1.35,2.83,0,1.25.61,2.25,1.83,3,1.22.75,2.71,1.39,4.45,1.91,1.75.52,3.5,1.13,5.26,1.82,1.76.69,3.26,1.83,4.49,3.43,1.23,1.59,1.85,3.61,1.85,6.06,0,3.44-1.22,6.26-3.66,8.44-2.44,2.19-5.8,3.28-10.09,3.28-1.69,0-3.32-.21-4.9-.64-1.58-.43-2.88-.93-3.9-1.52-1.02-.58-1.92-1.18-2.7-1.79-.78-.61-1.33-1.12-1.67-1.54l-.58-.65,4.68-4.78c.24.28.57.64,1,1.08.43.44,1.39,1.03,2.87,1.78,1.48.75,3.04,1.12,4.66,1.12,1.87,0,3.34-.45,4.39-1.35,1.06-.9,1.58-2.05,1.58-3.43,0-1.25-.61-2.25-1.83-3.02Z"/>
  </g>
  <path class="st1" d="M564.76,586.78l-6.92-5.85c-3.24-2.74-5.11-6.77-5.11-11.02v-13.86c.01-5.78-3.44-11.01-8.76-13.27l-1.14-.48c-4.18-1.78-8.95-1.48-12.88.81l-13.61,7.92c-3,1.75-6.54,2.35-9.95,1.7l-19.55-3.74c-4.09-.78-8.31.24-11.59,2.8l-29.62,23.17c-4.09,3.2-6.14,8.35-5.37,13.48l1.49,9.97c.98,6.55,6.3,11.59,12.89,12.21l13.01,1.23c5.53.52,10.27,4.18,12.17,9.39l.11.31c1.61,4.4,5.25,7.74,9.77,8.96l11.97,3.24c3.61.97,7.36.33,10.71-1.32,3.61-1.78,8.05-.96,10.78,2.14h0c3.84,4.36,9.93,5.99,15.44,4.13l18.44-6.24c5.14-1.74,8.86-6.21,9.64-11.58l3.04-21.01c.71-4.92-1.16-9.86-4.96-13.07Z"/>
  <path class="st1" d="M413.49,551.85c-.25-1.18-1.18-2.09-2.37-2.33l-37.14-7.38c-1.14-.27-1.23.59-1.23.59-.93,8.39,1.93,13.57,5.18,20.59,2.8,6.05,20,16.19,27.51,12.59,5.77-2.79,7.93-5.82,10.16-12.25.18-.52.21-1.1.1-1.64l-2.2-10.17Z"/>
  <path class="st2" d="M434.14,451.45c-4.76-17.98,14.34-54.32,14.34-54.32l-145.7-129.16s-5.83-5.49-13.2-5.49h-70.27l215.37,191.05c-.34-.81-.54-1.53-.54-2.08Z"/>
  <path class="st2" d="M669.14,524.86l-139.49-92.02c-3.14-2.08-7.34-1.49-9.8,1.38,0,0-27.65,36-33.38,38.94-47.26,41.03-89.1,9.15-89.1,9.15l-244.57-219.83h-55.59c-14.43,0-17.21,13.13-9.48,21.21l282.98,245.33c1.06.92,2.35,1.52,3.73,1.74l41.39,6.54c2.69.42,4.76,2.59,5.06,5.3l1.73,15.6c.18,1.66,1.05,3.17,2.38,4.17l4.37,3.27c2.16,1.62,5.14,1.6,7.28-.04l37.18-28.41c1.4-1.07,3.21-1.48,4.93-1.11l30.49,6.53c1.43.31,2.92.08,4.2-.63l18.28-10.16c1.59-.88,3.49-1,5.18-.33l18.84,7.54c2.29.92,3.8,3.14,3.8,5.61v23.53c0,1.74.75,3.4,2.06,4.55l15.75,13.76c1.52,1.33,2.28,3.33,2.01,5.33l-3.24,24.75c-.6,4.56,3.91,8.08,8.19,6.41l12.26-4.8c2.14-.84,3.51-2.81,3.86-5.07.44-2.8,2.41-5.11,5.1-5.97l8.09-2.6c1.57-.5,2.87-1.63,3.59-3.12l6.5-13.44c.52-1.08,1.36-1.99,2.4-2.59l18.87-10.97c1.44-.83,2.46-2.22,2.84-3.84l3.08-13.09c.35-1.49,1.25-2.79,2.53-3.64l13.45-8.96c1.29-.86,2.2-2.19,2.54-3.7l2.24-9.95c.55-2.45-.47-4.98-2.57-6.37Z"/>
  <path class="st2" d="M776.53,262.48c-5.37,0-10.53,2.12-14.35,5.89l-95.7,94.54c-6.78,6.7-16.32,9.8-25.74,8.38l-105.36-15.92c-8.88-1.34-17.93.57-25.51,5.39l-38.1,24.24c-3.78,2.41-6.66,5.99-8.21,10.19l-14.7,40.08c-5.07,13.83,5.73,28.32,20.44,27.4,5.9-.37,11.35-3.28,14.94-7.97l21.95-28.7c3.38-4.42,8.43-7.27,13.96-7.89l7.29-.81c4.42-.49,8.89.48,12.71,2.76l73.7,43.97,226.41-201.56h-63.75Z"/>
  <path class="st2" d="M947.7,262.48h-41.19l-253.51,228.65,21.8,14.38c5.37,3.55,12.43,3.19,17.42-.88l264.78-216.02c10.73-8.75,4.54-26.13-9.31-26.13Z"/>
</svg>