<svg xmlns="http://www.w3.org/2000/svg" xmlns:xlink="http://www.w3.org/1999/xlink" style="isolation:isolate" viewBox="0 0 526.9 119.2" width="526.9pt" height="119.2pt"><path d=" M 262.6 7.4 L 519.8 7.4 L 519.7 82.6 L 262.6 82.6 L 262.6 7.4 Z " fill-rule="evenodd" fill="rgb(32,23,81)"></path><path d=" M 297 40.1 L 297 32.6 L 295.8 32.6 C 295.5 33.4 295 33.8 294.4 33.8 C 292.7 33.8 292 32.6 289.5 32.6 C 285.5 32.6 282.1 35.8 282.1 39.6 C 282.1 47.8 295 46 295 52.7 C 295 55.1 293.1 56.9 290.8 56.9 C 287.8 56.9 284 54.9 283 49.9 L 281.8 49.9 L 281.8 58.2 L 283 58.2 C 283.1 57.3 283.7 56.6 284.6 56.6 C 285.8 56.6 288.1 58.4 290.8 58.4 C 295 58.4 298.5 55 298.5 50.9 C 298.5 41.9 285.8 43.5 285.8 37.3 C 285.8 35.3 287.4 34 289.8 34 C 292.7 34 295.3 36.1 295.8 40.1 C 295.6 40.1 297 40.1 297 40.1 Z " fill-rule="evenodd" fill="rgb(255,255,255)"></path><path d=" M 324.6 42.7 C 324.9 37.1 319.7 32.6 314.1 32.6 C 307.2 32.6 301.9 38.4 301.9 45.7 C 301.9 53 307.4 58.3 315 58.3 C 319.2 58.3 322.1 56.9 325 53.1 L 325 51.3 C 321.5 55.2 319.8 56.4 316.5 56.4 C 313.2 56.4 306.7 53.7 306.9 42.8 L 324.6 42.7 L 324.6 42.7 L 324.6 42.7 Z  M 306.8 41.6 C 307.1 37.1 309.5 34.1 313.5 34.1 C 316.6 34.1 320.2 36.3 320 41.6 L 306.8 41.6 L 306.8 41.6 Z " fill-rule="evenodd" fill="rgb(255,255,255)"></path><path d=" M 350.3 32.6 L 349.1 32.6 C 348.7 33.5 348.1 34 347.5 34 C 346.3 34 344.3 32.6 340.7 32.6 C 333.8 32.6 328.2 38.6 328.2 46 C 328.2 53.3 333.2 58.3 340.4 58.3 C 344.8 58.3 348.5 56.5 351.1 53 L 351.1 51.2 C 348.6 54.7 345 56.3 342.1 56.3 C 337.2 56.3 333 50.8 333 44.1 C 333 38.1 336.4 34 341.1 34 C 345.1 34 348.2 36.8 349.2 41.2 L 350.4 41.2 L 350.4 32.6 L 350.3 32.6 Z " fill-rule="evenodd" fill="rgb(255,255,255)"></path><path d=" M 378.7 32.6 L 377.5 32.6 L 369.3 33.4 L 369.3 34.6 C 373.5 34.7 374 35.1 374 38.4 L 374 51.5 C 372 54.2 369.9 55.5 367.6 55.5 C 364.3 55.5 362.1 53.5 362.1 50 L 362.1 32.6 L 360.9 32.6 L 353.1 33.4 L 353.1 34.6 C 356.6 34.6 357.4 35.5 357.4 37.8 L 357.4 50.2 C 357.4 54.7 360.6 58.3 365.4 58.3 C 368.7 58.3 371.5 56.7 373.9 53.6 L 374 53.6 L 374 57.6 L 382.8 57.6 L 382.8 56.4 C 379.5 56.4 378.6 55.6 378.6 53 L 378.7 32.6 L 378.7 32.6 L 378.7 32.6 Z " fill-rule="evenodd" fill="rgb(255,255,255)"></path><path d=" M 394.9 39.1 C 397.1 37 398.5 36.2 400 36.2 C 401.6 36.2 403.8 37.2 405.8 38.3 L 407.7 34 C 406.5 32.9 404.6 32.1 403.2 32.1 C 401.6 32.1 399.4 33.5 394.9 37.4 L 394.9 32 L 393.7 32 L 385.2 32.8 L 385.2 34 C 389.3 34 390.2 34.4 390.2 38 L 390.2 51.8 C 390.2 55.5 389.8 56.5 386.1 56.5 L 386.1 57.7 L 398.9 57.7 L 398.9 56.5 C 395.7 56.5 394.9 55.7 394.9 53.1 L 394.9 39.1 L 394.9 39.1 Z " fill-rule="evenodd" fill="rgb(255,255,255)"></path><path d=" M 419.3 32.1 L 418.2 32.1 L 410.1 32.8 L 410.1 34 C 413.7 34 414.7 34.5 414.7 37.8 L 414.7 52.6 C 414.7 55.5 413.8 56.3 410.1 56.3 L 410.1 57.5 L 423.4 57.5 L 423.4 56.3 C 420 56.3 419.4 55 419.4 52.6 L 419.3 32.1 L 419.3 32.1 L 419.3 32.1 Z  M 417.1 23 C 415.5 23 414.1 24.3 414.1 26 C 414.1 27.6 415.5 29 417.1 29 C 418.7 29 420.1 27.6 420.1 26 C 420 24.3 418.7 23 417.1 23 Z " fill-rule="evenodd" fill="rgb(255,255,255)"></path><path d=" M 453 38.3 C 452.1 36.2 452.7 35 454.5 34.7 L 454.5 32.9 L 442.8 32.9 L 442.8 34.7 C 445.6 34.8 446.7 35.5 448 38.3 L 456.5 58 L 454.9 62.2 C 453.4 66.5 451.7 68.2 448.7 68.2 C 447.9 68.2 447.3 68.1 446.4 67.6 L 444.8 71.8 C 446 72.6 446.8 72.8 447.8 72.8 C 450.7 72.8 453.9 69.6 455.8 63.9 L 463.9 39.8 C 465.3 35.8 466.8 34.1 469.4 34.1 L 469.4 32.8 L 461 32.8 L 461 34.1 C 463.7 34.2 463.9 35.8 462.9 38.7 L 458.7 51.5 L 453 38.3 L 453 38.3 Z " fill-rule="evenodd" fill="rgb(255,255,255)"></path><path d=" M 434.4 24.7 L 433.2 24.7 C 431.2 28.9 428.4 31.8 425.1 33.5 L 425.1 34.7 L 429.7 34.7 L 429.7 51 C 429.7 55.2 432.6 58.1 436.7 58.1 C 439.5 58.1 441.9 56.7 444.1 54.1 L 443.3 53.2 C 441.9 54.9 440.6 55.5 438.8 55.5 C 436.1 55.5 434.4 53.8 434.4 50.4 L 434.4 34.7 L 442.9 34.7 L 442.9 32.9 L 434.4 32.9 L 434.4 24.7 L 434.4 24.7 Z " fill-rule="evenodd" fill="rgb(255,255,255)"></path><rect x="7.1" y="7.4" width="256.7" height="75.2" transform="matrix(1,0,0,1,0,0)" fill="rgb(255,81,0)"></rect><g><path d=" M 80.7 32.2 L 86.7 32.2 C 89 32.2 90.8 32.5 92.3 33.3 C 94.9 34.6 96.3 37 96.3 40.4 C 96.3 43.3 95.1 46.2 91.5 47.7 C 90.1 48.2 88.4 48.6 86.2 48.6 L 85.1 48.6 L 85.1 57.2 L 80.6 57.2 L 80.7 32.2 L 80.7 32.2 L 80.7 32.2 Z  M 86.6 44.8 C 87.8 44.8 88.8 44.6 89.5 44.2 C 90.9 43.5 91.6 42.2 91.6 40.3 C 91.6 38.7 91 37.3 89.6 36.5 C 88.9 36.1 87.9 35.8 86.5 35.8 L 85.2 35.8 L 85.2 44.7 C 85.3 44.8 86.6 44.8 86.6 44.8 Z " fill="rgb(255,255,255)"></path><path d=" M 99.6 32.2 L 106.4 32.2 C 108.7 32.2 110.4 32.6 111.7 33.2 C 114.4 34.4 115.4 36.7 115.4 39.3 C 115.4 42.6 113.4 44.8 110.5 45.7 L 110.5 45.8 C 111.3 46.2 112.3 47.6 113.6 49.8 L 117.7 57 L 112.5 57 L 108.9 50.7 C 107.7 48.5 106.8 47.5 106.2 47.3 L 104.1 47.3 L 104.1 57 L 99.6 57 L 99.6 32.2 L 99.6 32.2 L 99.6 32.2 Z  M 106.1 43.7 C 107.3 43.7 108.1 43.5 108.9 43.1 C 110 42.5 110.6 41.4 110.6 39.8 C 110.6 38.5 110 37.3 108.9 36.7 C 108.3 36.3 107.5 36 106.1 36 L 104 36 L 104 43.8 C 104.1 43.7 106.1 43.7 106.1 43.7 Z " fill="rgb(255,255,255)"></path><path d=" M 119 44.7 C 119 37.2 124.2 31.9 131.5 31.9 C 138.9 31.9 144 37.1 144 44.7 C 144 52.3 138.7 57.4 131.5 57.4 C 124.2 57.4 119 52.3 119 44.7 Z  M 139.2 44.7 C 139.2 39.2 136.2 35.7 131.5 35.7 C 126.9 35.7 123.8 39 123.8 44.7 C 123.8 50.3 126.9 53.6 131.5 53.6 C 136.1 53.6 139.2 50.3 139.2 44.7 Z " fill="rgb(255,255,255)"></path><path d=" M 152 36 L 144.8 36 L 144.8 32.2 L 164.5 32.2 L 163.2 36 L 156.6 36 L 156.6 57 L 152 57 L 152 36 L 152 36 Z " fill="rgb(255,255,255)"></path><path d=" M 165.8 32.2 L 179.5 32.2 L 178.3 36 L 170.3 36 L 170.3 42.5 L 178.3 42.5 L 178.3 46.3 L 170.3 46.3 L 170.3 53.1 L 179.5 53.1 L 179.5 56.9 L 165.7 56.9 L 165.8 32.2 L 165.8 32.2 L 165.8 32.2 Z " fill="rgb(255,255,255)"></path><path d=" M 202.4 55.5 C 199.6 57 197 57.5 194.5 57.5 C 186.4 57.5 181.9 52.3 181.9 45 C 181.9 37.8 187 32 195 32 C 197.7 32 200 32.5 201.5 33.2 L 201.5 37.4 C 199.6 36.4 197.5 35.8 195.1 35.8 C 189.6 35.8 186.7 40 186.7 44.8 C 186.7 50 189.9 53.6 195 53.6 C 197.4 53.6 199.3 52.9 201.1 51.9 L 202.4 55.5 L 202.4 55.5 Z " fill="rgb(255,255,255)"></path><path d=" M 212 36 L 204.8 36 L 204.8 32.2 L 224.5 32.2 L 223.2 36 L 216.6 36 L 216.6 57 L 212 57 L 212 36 L 212 36 L 212 36 Z " fill="rgb(255,255,255)"></path></g><path d=" M 230.1 31.9 L 233.7 31.9 L 243.9 57 L 239 57 L 232 38.3 L 227.6 50.7 L 225.2 57 L 220.4 57 L 230.1 31.9 L 230.1 31.9 Z " fill="rgb(255,255,255)"></path><path d=" M 277.1 110.2 C 275.3 111.2 273.7 111.4 272.1 111.4 C 266.9 111.4 264.1 108.1 264.1 103.5 C 264.1 98.9 267.3 95.3 272.4 95.3 C 274.1 95.3 275.6 95.6 276.5 96.1 L 276.5 98.8 C 275.3 98.2 274 97.8 272.4 97.8 C 268.9 97.8 267.1 100.4 267.1 103.5 C 267.1 106.8 269.1 109.1 272.3 109.1 C 273.9 109.1 275.1 108.7 276.2 108 L 277.1 110.2 L 277.1 110.2 Z " fill="rgb(32,23,81)"></path><path d=" M 278.8 103.4 C 278.8 98.6 282.1 95.3 286.8 95.3 C 291.5 95.3 294.7 98.6 294.7 103.4 C 294.7 108.2 291.3 111.5 286.8 111.5 C 282.1 111.5 278.8 108.2 278.8 103.4 Z  M 291.6 103.4 C 291.6 99.9 289.7 97.7 286.7 97.7 C 283.8 97.7 281.8 99.8 281.8 103.4 C 281.8 107 283.8 109.1 286.7 109.1 C 289.6 109.1 291.6 107 291.6 103.4 Z " fill="rgb(32,23,81)"></path><path d=" M 297.4 95.5 L 300 95.5 L 304.1 101.5 C 304.6 102.3 305.1 102.9 305.4 103.5 L 305.4 103.5 C 305.7 102.9 306.1 102.2 306.7 101.4 L 310.5 95.5 L 313.1 95.5 L 313.1 111.3 L 310.2 111.3 L 310.2 102.4 C 310.2 101.8 310.2 100.9 310.2 100.3 L 310.2 100.3 C 310 100.7 309.4 101.6 309.1 102.1 L 306 106.9 L 304.7 106.9 L 301.2 101.9 C 300.9 101.4 300.4 100.9 300.1 100.3 L 300.1 100.3 C 300.1 100.9 300.1 101.7 300.1 102.3 L 300.1 111.3 L 297.2 111.3 L 297.4 95.5 L 297.4 95.5 L 297.4 95.5 Z " fill="rgb(32,23,81)"></path><path d=" M 316.7 95.5 L 320.5 95.5 C 322 95.5 323.1 95.7 324 96.2 C 325.6 97 326.6 98.5 326.6 100.7 C 326.6 102.5 325.8 104.4 323.6 105.3 C 322.7 105.6 321.7 105.9 320.2 105.9 L 319.5 105.9 L 319.5 111.3 L 316.6 111.3 L 316.7 95.5 L 316.7 95.5 L 316.7 95.5 Z  M 320.4 103.5 C 321.2 103.5 321.8 103.4 322.2 103.1 C 323.1 102.7 323.5 101.8 323.5 100.6 C 323.5 99.6 323.1 98.7 322.3 98.2 C 321.8 97.9 321.2 97.8 320.3 97.8 L 319.5 97.8 L 319.5 103.5 L 320.4 103.5 L 320.4 103.5 L 320.4 103.5 Z " fill="rgb(32,23,81)"></path><path d=" M 333.7 95.4 L 336 95.4 L 342.3 111.2 L 339.2 111.2 L 337.7 107.3 L 332.1 107.3 L 330.6 111.2 L 327.6 111.2 L 333.7 95.4 L 333.7 95.4 Z  M 336.9 104.9 L 335.8 101.8 C 335.4 100.6 335.2 99.9 335 99.4 L 335 99.4 C 334.9 100 334.6 100.6 334.2 101.9 L 333.1 105 L 336.9 105 L 336.9 104.9 Z " fill="rgb(32,23,81)"></path><path d=" M 355.6 111.2 L 348.8 102.2 C 348.1 101.3 347.6 100.5 347 99.8 L 347 99.8 C 347 100.4 347 101.3 347 102.2 L 347 111.1 L 344.1 111.1 L 344.1 95.5 L 346.9 95.5 L 353.5 104.1 C 354.2 105 354.8 105.8 355.2 106.5 L 355.2 106.5 C 355.2 105.7 355.2 104.7 355.2 103.8 L 355.2 95.4 L 358.1 95.4 L 358.1 111.2 C 358.2 111.2 355.6 111.2 355.6 111.2 Z  M 347.4 93.1 C 347.4 91.8 348.2 91.1 349.4 91.1 C 350.8 91.1 351.8 92.2 352.5 92.2 C 353 92.2 353 91.9 353 91.3 L 354.9 91.3 L 354.9 92.3 C 354.9 93.6 354 94.3 352.9 94.3 C 351.5 94.3 350.5 93.3 349.8 93.3 C 349.3 93.3 349.3 93.6 349.3 94.2 L 347.4 94.2 L 347.4 93.1 L 347.4 93.1 Z " fill="rgb(32,23,81)"></path><path d=" M 362.9 91.1 L 366 91.1 L 363.7 94.6 L 361.5 94.6 L 362.9 91.1 L 362.9 91.1 Z  M 361.6 95.5 L 364.5 95.5 L 364.5 111.3 L 361.6 111.3 L 361.6 95.5 L 361.6 95.5 Z " fill="rgb(32,23,81)"></path><path d=" M 372.3 95.4 L 374.6 95.4 L 380.9 111.2 L 377.8 111.2 L 376.3 107.3 L 370.7 107.3 L 369.2 111.2 L 366.2 111.2 L 372.3 95.4 L 372.3 95.4 Z  M 375.5 104.9 L 374.4 101.8 C 374 100.6 373.8 99.9 373.6 99.4 L 373.6 99.4 C 373.5 100 373.2 100.6 372.8 101.9 L 371.7 105 L 375.5 105 L 375.5 104.9 Z " fill="rgb(32,23,81)"></path><path d=" M 387.5 95.5 L 392.4 95.5 C 398 95.5 401 98.6 401 103.3 C 401 108.1 397.6 111.3 392.1 111.3 L 387.5 111.3 L 387.5 95.5 L 387.5 95.5 L 387.5 95.5 Z  M 392.2 108.8 C 396.4 108.8 398 106.3 398 103.3 C 398 100 396.1 97.9 392.2 97.9 L 390.4 97.9 L 390.4 108.8 L 392.2 108.8 L 392.2 108.8 L 392.2 108.8 Z " fill="rgb(32,23,81)"></path><path d=" M 405 95.5 L 413.7 95.5 L 412.9 97.9 L 407.8 97.9 L 407.8 102 L 412.9 102 L 412.9 104.5 L 407.8 104.5 L 407.8 108.8 L 413.7 108.8 L 413.7 111.2 L 405 111.2 L 405 95.5 Z " fill="rgb(32,23,81)"></path><path d=" M 421.7 107.9 C 422.6 108.6 423.8 109.1 425.3 109.1 C 426.6 109.1 427.9 108.6 427.9 107.2 C 427.9 104.1 421.1 104.5 421.1 99.7 C 421.1 97.4 423 95.3 426.2 95.3 C 427.8 95.3 429.2 95.7 430.1 96.1 L 430.1 98.7 C 428.9 98.1 427.6 97.7 426.3 97.7 C 425.2 97.7 424.2 98.1 424.2 99.4 C 424.2 102.3 431 101.9 431 106.9 C 431 109.7 428.6 111.4 425.4 111.4 C 423.6 111.4 421.8 110.9 420.6 110 L 421.7 107.9 L 421.7 107.9 Z " fill="rgb(32,23,81)"></path><path d=" M 433.8 95.5 L 442.5 95.5 L 441.7 97.9 L 436.6 97.9 L 436.6 102 L 441.7 102 L 441.7 104.5 L 436.6 104.5 L 436.6 108.8 L 442.5 108.8 L 442.5 111.2 L 433.8 111.2 L 433.8 95.5 Z " fill="rgb(32,23,81)"></path><path d=" M 458.7 110.2 C 457.3 110.9 455.2 111.5 453 111.5 C 447.8 111.5 444.8 108.2 444.8 103.7 C 444.8 98.9 448.2 95.4 453.5 95.4 C 455.3 95.4 456.9 95.8 458.1 96.2 L 458.1 98.9 C 456.9 98.3 455.4 97.8 453.7 97.8 C 449.9 97.8 447.9 100.1 447.9 103.5 C 447.9 106.9 449.9 109.1 453.3 109.1 C 454.4 109.1 455.3 108.9 455.9 108.6 L 455.9 103.6 L 458.8 103.6 L 458.7 110.2 L 458.7 110.2 L 458.7 110.2 Z " fill="rgb(32,23,81)"></path><path d=" M 462.4 108.4 C 462 107.6 461.8 106.5 461.8 105.3 L 461.8 95.4 L 464.7 95.4 L 464.7 105.1 C 464.7 105.9 464.8 106.7 465.1 107.2 C 465.6 108.3 466.7 109 468.3 109 C 469.9 109 471 108.3 471.5 107.2 C 471.8 106.6 471.9 105.9 471.9 105 L 471.9 95.3 L 474.8 95.3 L 474.8 105.2 C 474.8 106.4 474.6 107.5 474.2 108.3 C 473.2 110.3 471.2 111.3 468.3 111.3 C 465.4 111.5 463.4 110.5 462.4 108.4 Z " fill="rgb(32,23,81)"></path><path d=" M 478.2 95.5 L 482.5 95.5 C 484 95.5 485 95.7 485.9 96.1 C 487.6 96.9 488.2 98.3 488.2 100 C 488.2 102.1 486.9 103.5 485.1 104.1 L 485.1 104.2 C 485.6 104.5 486.2 105.3 487.1 106.8 L 489.7 111.4 L 486.4 111.4 L 484.1 107.4 C 483.3 106 482.8 105.3 482.4 105.2 L 481 105.2 L 481 111.4 L 478.1 111.4 L 478.2 95.5 L 478.2 95.5 L 478.2 95.5 Z  M 482.4 102.7 C 483.1 102.7 483.7 102.5 484.2 102.3 C 484.9 101.9 485.3 101.2 485.3 100.2 C 485.3 99.4 484.9 98.6 484.3 98.2 C 483.9 97.9 483.4 97.7 482.5 97.7 L 481.2 97.7 L 481.2 102.6 L 482.4 102.7 L 482.4 102.7 L 482.4 102.7 Z " fill="rgb(32,23,81)"></path><path d=" M 491.2 103.4 C 491.2 98.6 494.5 95.3 499.2 95.3 C 503.9 95.3 507.2 98.6 507.2 103.4 C 507.2 108.2 503.8 111.5 499.2 111.5 C 494.5 111.5 491.2 108.2 491.2 103.4 Z  M 504.1 103.4 C 504.1 99.9 502.2 97.7 499.2 97.7 C 496.3 97.7 494.3 99.8 494.3 103.4 C 494.3 107 496.3 109.1 499.2 109.1 C 502.1 109.1 504.1 107 504.1 103.4 Z " fill="rgb(32,23,81)"></path><path d=" M 510.3 107.9 C 511.2 108.6 512.4 109.1 513.9 109.1 C 515.2 109.1 516.5 108.6 516.5 107.2 C 516.5 104.1 509.7 104.5 509.7 99.7 C 509.7 97.4 511.5 95.3 514.8 95.3 C 516.4 95.3 517.8 95.7 518.7 96.1 L 518.7 98.7 C 517.5 98.1 516.2 97.7 514.9 97.7 C 513.8 97.7 512.7 98.1 512.7 99.4 C 512.7 102.3 519.5 101.9 519.5 106.9 C 519.5 109.7 517.1 111.4 513.9 111.4 C 512.1 111.4 510.3 110.9 509.1 110 L 510.3 107.9 L 510.3 107.9 Z " fill="rgb(32,23,81)"></path></svg>